PathFileType	4	(X/Y/Z)	E:\Qualisys_Data\Carbon_Farble_Plate\Data\Amateur_Runner\S14\T1\S14T1V23_c3d.trc
DataRate	CameraRate	NumFrames	NumMarkers	Units	OrigDataRate	OrigDataStartFrame	OrigNumFrames
200.000000	200.000000	4	39	mm	200.000000	0	308
Frame#	Time	LSHO			RSHO			LICST			RICST			LASIS			LHEEL			RASIS			LTROC			RTROC			SACR			LTH1			LSK4			LTH2			LTH3			RHM5			LSK2			LTH4			RTH1			LTOE			RTH2			RTH3			RTH4			LLEP			RLEP			LSK1			LSK3			RSK1			LHM5			RSK2			LFT1			RSK3			RSK4			LLME			RLME			RTOE			RHEEL			RFT1			RFT2			LFT2			
		X1	Y1	Z1	X2	Y2	Z2	X3	Y3	Z3	X4	Y4	Z4	X5	Y5	Z5	X6	Y6	Z6	X7	Y7	Z7	X8	Y8	Z8	X9	Y9	Z9	X10	Y10	Z10	X11	Y11	Z11	X12	Y12	Z12	X13	Y13	Z13	X14	Y14	Z14	X15	Y15	Z15	X16	Y16	Z16	X17	Y17	Z17	X18	Y18	Z18	X19	Y19	Z19	X20	Y20	Z20	X21	Y21	Z21	X22	Y22	Z22	X23	Y23	Z23	X24	Y24	Z24	X25	Y25	Z25	X26	Y26	Z26	X27	Y27	Z27	X28	Y28	Z28	X29	Y29	Z29	X30	Y30	Z30	X31	Y31	Z31	X32	Y32	Z32	X33	Y33	Z33	X34	Y34	Z34	X35	Y35	Z35	X36	Y36	Z36	X37	Y37	Z37	X38	Y38	Z38	X39	Y39	Z39	

1	0	-2910.275390625	1491.467407226562	-458.7118530273438	-2972.536865234375	1499.120483398438	-169.1331634521484	-2972.305419921875	1042.164672851562	-435.7331237792969	-2968.93603515625	1047.433471679688	-164.9126434326172	-2939.638671875	986.6416015625	-410.5937805175781	-3578.8740234375	480.7683410644531	-322.8630065917969	-2943.35888671875	1003.432861328125	-183.5067291259766	-3103.415283203125	946.2119140625	-452.8916625976562	-3081.19189453125	953.9102172851562	-128.7334899902344	-3108.44482421875	1057.42138671875	-307.4260864257812	-3111.05029296875	715.8897705078125	-459.1588745117188	-3421.46923828125	541.46826171875	-405.45849609375	-3180.25830078125	746.1909790039062	-432.4434509277344	-3141.10009765625	621.9526977539062	-439.7713317871094	-2628.572265625	176.1644439697266	-140.0964660644531	-3332.58447265625	581.3224487304688	-425.204345703125	-3211.889892578125	653.2915649414062	-416.8385009765625	-2872.626953125	748.5451049804688	-128.8783264160156	-3609.100341796875	223.46240234375	-367.7723083496094	-2945.419189453125	720.8580322265625	-115.5149612426758	-2837.16357421875	658.0015869140625	-157.5604705810547	-2913.327880859375	625.70263671875	-137.6648254394531	-3205.710693359375	578.4666748046875	-432.0372924804688	-2862.55322265625	571.7528076171875	-148.2277679443359	-3298.914794921875	506.8285522460938	-432.1205749511719	-3391.931884765625	466.4270935058594	-416.96435546875	-2809.17333984375	462.382080078125	-140.7278594970703	-3631.752685546875	297.0902099609375	-418.6904296875	-2891.173583984375	438.9228210449219	-148.1151428222656	-3601.163330078125	463.2773742675781	-294.1090087890625	-2786.3271484375	362.2413635253906	-152.6427764892578	-2863.1328125	347.0160522460938	-160.2615814208984	-3567.1298828125	434.4613342285156	-389.8855895996094	-2774.364990234375	180.3335571289062	-175.6684875488281	-2568.18212890625	227.2115173339844	-194.4597930908203	-2812.47509765625	128.4682769775391	-229.5188903808594	-2779.728515625	114.4949798583984	-262.8714904785156	-2795.493408203125	107.5513305664062	-206.823974609375	-3612.432373046875	479.7545166015625	-345.7429809570312
2	0.005	-2890.51171875	1490.0986328125	-457.7571411132812	-2952.857421875	1497.544799804688	-168.4613342285156	-2951.670166015625	1040.11767578125	-435.6694946289062	-2948.322998046875	1045.359252929688	-164.4304504394531	-2919.558349609375	985.5104370117188	-410.4153747558594	-3558.44580078125	493.3001098632812	-323.2833251953125	-2924.22509765625	1001.614379882812	-183.9235382080078	-3082.186767578125	943.3511962890624	-453.8240356445312	-3061.262451171875	952.2802734375	-129.3251495361328	-3087.956787109375	1054.988525390625	-307.4014892578125	-3087.124267578125	712.7061767578125	-458.60107421875	-3396.991455078125	544.0811157226562	-405.0180358886719	-3156.79833984375	742.3004150390625	-432.7967834472656	-3116.6669921875	618.8490600585938	-439.8884887695312	-2605.61572265625	176.5934295654297	-140.3295440673828	-3307.807373046875	581.8902587890625	-426.8801574707031	-3188.14501953125	649.6409301757812	-417.5497436523438	-2854.556884765625	745.2872314453125	-128.7911071777344	-3594.505126953125	233.3110504150391	-368.2840881347656	-2928.486083984375	716.6099853515625	-114.4762344360352	-2819.372802734375	654.54052734375	-156.9441986083984	-2894.291748046875	621.6967163085938	-135.0585479736328	-3181.276123046875	575.205078125	-432.794189453125	-2843.1611328125	569.1591796875	-148.7468719482422	-3276.213134765625	505.825439453125	-432.2848510742188	-3370.407958984375	468.6527099609375	-416.8558044433594	-2788.250732421875	460.9367980957031	-143.4689331054688	-3614.958251953125	308.034423828125	-417.7219543457031	-2870.780517578125	436.2080383300781	-149.1366119384766	-3580.819091796875	472.798095703125	-292.5844116210938	-2763.5869140625	360.6524658203125	-152.9580688476562	-2840.672607421875	343.8319702148438	-160.0776672363281	-3545.85400390625	442.8146362304688	-388.5260925292969	-2749.96875	178.7086486816406	-176.1182861328125	-2545.347412109375	228.3018341064453	-194.3424987792969	-2788.478759765625	126.9245529174805	-230.7814025878906	-2754.82177734375	113.1565093994141	-263.706787109375	-2770.339599609375	105.3878860473633	-207.6064453125	-3588.665771484375	489.4914855957031	-345.8036499023438
3	0.01	-2869.655517578125	1488.068969726562	-456.8270874023438	-2932.2900390625	1494.716674804688	-167.5627136230469	-2930.973388671875	1038.251098632812	-435.6127014160156	-2928.3056640625	1042.946166992188	-164.3868408203125	-2898.543701171875	983.6549682617188	-409.9083557128906	-3536.690185546875	499.3503112792969	-321.1666564941406	-2902.147216796875	999.997802734375	-183.6359558105469	-3061.097412109375	940.6419677734376	-454.9020385742188	-3040.13916015625	948.9060668945312	-129.242919921875	-3068.1337890625	1052.403564453125	-307.4190063476562	-3063.8037109375	709.9899291992188	-459.2135009765625	-3373.977783203125	546.71484375	-408.8030395507812	-3133.91796875	738.435302734375	-433.4642944335938	-3092.44140625	615.3218994140625	-440.5598449707031	-2583.557373046875	176.3033447265625	-140.3030548095703	-3281.7705078125	581.3062744140625	-426.717041015625	-3163.931640625	645.066162109375	-417.8966979980469	-2837.895263671875	742.1012573242188	-127.8576889038086	-3578.731201171875	244.8442687988281	-366.7030029296875	-2909.92919921875	713.2601928710938	-113.7427520751953	-2800.697265625	651.7915649414062	-156.1436309814453	-2875.138671875	619.9274291992188	-134.7745971679688	-3155.977294921875	571.5994262695312	-433.2897033691406	-2824.09326171875	566.6608276367188	-148.8831176757812	-3253.30322265625	505.0850219726562	-432.7290649414062	-3348.74072265625	471.2345581054688	-416.6019897460938	-2767.582763671875	458.8977966308594	-143.1886596679688	-3597.552001953125	318.8733825683594	-416.546142578125	-2849.961669921875	432.9134216308594	-149.1980438232422	-3556.578369140625	484.0137634277344	-291.9385375976562	-2743.086669921875	358.5525817871094	-153.5486297607422	-2820.556884765625	341.9762878417969	-160.9840240478516	-3524.3447265625	451.1320190429688	-388.2294616699219	-2727.12353515625	177.3153381347656	-176.6197204589844	-2523.27880859375	228.3383026123047	-193.8716125488281	-2764.554443359375	124.2313613891602	-231.900634765625	-2731.78173828125	111.2550201416016	-265.1244812011719	-2747.780029296875	103.9976119995117	-209.2187194824219	-3562.376953125	501.4076538085938	-340.3296203613281
4	0.015	-2849.057373046875	1485.50048828125	-455.9882202148438	-2911.4140625	1492.041259765625	-165.8828735351562	-2911.103759765625	1035.690551757812	-435.9927368164062	-2908.150146484375	1041.580810546875	-164.3465423583984	-2878.3203125	981.6563110351562	-410.3926391601562	-3508.850830078125	509.1551208496094	-319.7539367675781	-2883.693115234375	997.3389282226562	-183.7627716064453	-3039.968505859375	937.2960205078124	-455.8042297363281	-3020.237548828125	946.5943603515624	-129.7142028808594	-3047.890380859375	1049.170166015625	-307.7288208007812	-3039.807373046875	705.9338989257812	-459.0892028808594	-3349.98193359375	551.121826171875	-410.0693969726562	-3110.927734375	734.0159912109375	-434.2820739746094	-3067.552734375	611.3021850585938	-440.7571716308594	-2562.56201171875	174.8350982666016	-140.2678680419922	-3256.168701171875	580.7221069335938	-428.4451293945312	-3139.880126953125	640.5469970703125	-418.8924560546875	-2817.802734375	739.0795288085938	-126.2123565673828	-3562.412841796875	254.2886505126953	-365.7940979003906	-2891.7470703125	709.8734130859375	-113.0237350463867	-2781.71875	649.9147338867188	-156.3738861083984	-2857.651123046875	618.1664428710938	-135.0476837158203	-3130.833740234375	566.8670654296875	-434.0496826171875	-2804.495849609375	564.814453125	-149.3023986816406	-3229.583251953125	502.9915771484375	-433.1032104492188	-3326.1123046875	472.1107177734375	-416.1849060058594	-2747.50048828125	455.5863037109375	-142.9619903564453	-3578.697998046875	329.7189636230469	-415.6841125488281	-2829.398193359375	429.9208984375	-149.7076568603516	-3534.565185546875	492.7725524902344	-290.0018005371094	-2722.697265625	356.0684509277344	-154.8003234863281	-2798.227783203125	338.4999084472656	-161.7765197753906	-3502.11572265625	460.6092529296875	-386.4515075683594	-2706.66015625	174.8464050292969	-177.970703125	-2502.1513671875	226.5554656982422	-193.4608306884766	-2744.477294921875	122.660888671875	-233.0217132568359	-2710.04052734375	108.7044219970703	-266.0849914550781	-2726.47265625	101.2832412719727	-209.8090667724609	-3536.482421875	510.1035766601562	-337.95703125
